<svg width="490" height="490" viewBox="0 0 490 490" fill="none" xmlns="http://www.w3.org/2000/svg">
<g opacity="0.5">
<path d="M490 305V185H420.036C417.538 177.709 414.583 170.58 411.192 163.66L460.667 114.185L375.814 29.332L326.34 78.807C319.421 75.417 312.289 72.462 305 69.964V0H185V69.964C177.71 72.462 170.58 75.417 163.66 78.807L114.185 29.332L29.332 114.185L78.807 163.66C75.416 170.58 72.462 177.71 69.964 185H0V305H69.964C72.462 312.291 75.417 319.42 78.807 326.34L29.332 375.815L114.185 460.668L163.66 411.193C170.58 414.584 177.71 417.538 185 420.036V490H305V420.036C312.29 417.538 319.42 414.583 326.34 411.193L375.815 460.668L460.668 375.815L411.193 326.34C414.584 319.421 417.539 312.29 420.037 305H490ZM418.241 375.815L375.814 418.241L331.627 374.055L321.683 379.728C310.477 386.122 298.484 391.092 286.037 394.5L275 397.523V460H215V397.523L203.961 394.501C191.516 391.093 179.523 386.123 168.315 379.729L158.371 374.056L114.185 418.242L71.759 375.816L115.945 331.63L110.272 321.686C103.878 310.48 98.908 298.487 95.5 286.04L92.478 275H30V215H92.478L95.5 203.961C98.908 191.516 103.877 179.523 110.271 168.316L115.945 158.372L71.758 114.185L114.184 71.759L158.371 115.946L168.315 110.272C179.522 103.878 191.515 98.908 203.96 95.501L215 92.478V30H275V92.478L286.039 95.5C298.485 98.908 310.477 103.878 321.684 110.271L331.628 115.945L375.815 71.758L418.242 114.184L374.055 158.371L379.729 168.315C386.122 179.52 391.092 191.513 394.501 203.961L397.523 215H460V275H397.523L394.501 286.038C391.092 298.485 386.121 310.478 379.729 321.684L374.055 331.628L418.241 375.815Z" fill="black"/>
<path d="M245 150C192.617 150 150 192.617 150 245C150 297.383 192.617 340 245 340C297.383 340 340 297.383 340 245C340 192.617 297.383 150 245 150ZM245 310C209.159 310 180 280.841 180 245C180 209.159 209.159 180 245 180C280.841 180 310 209.159 310 245C310 280.841 280.841 310 245 310Z" fill="black"/>
</g>
</svg>
