<svg width="145" height="145" viewBox="0 0 145 145" fill="none" xmlns="http://www.w3.org/2000/svg">
<path d="M72.387 144.772C112.365 144.772 144.773 112.364 144.773 72.386C144.773 32.4083 112.365 0 72.387 0C32.4093 0 0.000976562 32.4083 0.000976562 72.386C0.000976562 112.364 32.4093 144.772 72.387 144.772Z" fill="#8DC5D6"/>
<path d="M45.2339 75.056C45.2339 86.864 38.7549 87.169 39.2159 94.988C39.7289 103.647 46.4969 103.667 46.4969 109.62C46.4969 115.571 40.2729 122.244 45.7869 128.653C70.0309 128.653 72.3969 128.653 72.3969 128.653V56.445L45.2339 75.056Z" fill="#2E576D"/>
<path d="M99.538 74.665C99.538 86.473 106.018 86.778 105.556 94.597C105.044 103.256 98.276 103.276 98.276 109.229C98.276 115.18 104.499 121.853 98.986 128.262C74.741 128.262 72.375 128.262 72.375 128.262V56.055L99.538 74.665Z" fill="#2E576D"/>
<path d="M72.387 92.549C88.7539 92.549 102.022 79.1946 102.022 62.721C102.022 46.2475 88.7539 32.893 72.387 32.893C56.02 32.893 42.752 46.2475 42.752 62.721C42.752 79.1946 56.02 92.549 72.387 92.549Z" fill="#2E576D"/>
<path d="M107.053 116.94C102.387 108.107 72.387 102.564 72.387 102.564C72.387 102.564 42.387 108.107 37.721 116.94C34.272 129.198 31.387 144.773 31.387 144.773H72.387H113.387C113.387 144.773 111.438 128.073 107.053 116.94Z" fill="#F1C9A5"/>
<path d="M72.387 102.564C72.387 102.564 102.387 108.107 107.053 116.94C111.439 128.073 113.387 144.773 113.387 144.773H72.387V102.564Z" fill="#E4B692"/>
<path d="M80.554 84.606H64.22V111.942H80.554V84.606Z" fill="#F1C9A5"/>
<path d="M80.554 84.606H72.387V111.942H80.554V84.606Z" fill="#E4B692"/>
<path opacity="0.1" d="M64.22 97.273C65.689 101.49 71.617 103.907 75.971 103.907C77.546 103.907 79.079 103.643 80.554 103.16V84.606H64.22V97.273Z" fill="#DDAC8C"/>
<path d="M93.387 67.357C93.387 50.283 83.985 40.574 72.387 40.574C60.789 40.574 51.387 50.283 51.387 67.357C51.387 84.431 60.789 98.274 72.387 98.274C83.984 98.274 93.387 84.432 93.387 67.357Z" fill="#F1C9A5"/>
<path d="M90.19 79.195C86.383 78.771 83.813 74.412 84.458 69.463C85.095 64.51 88.7 60.833 92.509 61.254C96.314 61.676 98.88 66.033 98.238 70.986C97.599 75.939 93.997 79.613 90.19 79.195Z" fill="#E4B692"/>
<path d="M46.6849 70.986C46.0419 66.033 48.6089 61.675 52.4119 61.254C56.2219 60.833 59.8279 64.51 60.4669 69.463C61.1089 74.412 58.5369 78.772 54.7329 79.195C50.9249 79.613 47.3229 75.939 46.6849 70.986Z" fill="#F1C9A5"/>
<path d="M93.387 67.357C93.387 50.283 83.985 40.574 72.387 40.574V98.274C83.984 98.274 93.387 84.432 93.387 67.357Z" fill="#E4B692"/>
<path d="M95.1201 65.43C95.1201 65.379 95.1231 65.33 95.1231 65.28C95.1231 52.035 86.1561 38.058 73.6051 38.058C61.0541 38.058 49.6741 52.034 49.6741 65.279C49.6741 65.33 49.6771 65.379 49.6771 65.429H95.1201V65.43Z" fill="#2E576D"/>
<path d="M113.387 144.773C113.387 144.773 111.439 128.073 107.053 116.94C104.494 112.095 94.319 108.244 85.647 105.751L72.356 116.183L58.531 105.923C49.996 108.42 40.221 112.207 37.721 116.941C34.272 129.199 31.387 144.774 31.387 144.774H72.387H113.387V144.773Z" fill="#FA582A"/>
</svg>
